<?xml version="1.0" encoding="UTF-8" standalone="no"?>
<!DOCTYPE svg PUBLIC "-//W3C//DTD SVG 1.1//EN"
 "http://www.w3.org/Graphics/SVG/1.1/DTD/svg11.dtd">
<!-- Generated by graphviz version 2.43.0 (0)
 -->
<!-- Title: sourcetree Pages: 1 -->
<svg width="196pt" height="116pt"
 viewBox="0.00 0.00 195.50 116.00" xmlns="http://www.w3.org/2000/svg" xmlns:xlink="http://www.w3.org/1999/xlink">
<g id="graph0" class="graph" transform="scale(1 1) rotate(0) translate(4 112)">
<title>sourcetree</title>
<polygon fill="white" stroke="transparent" points="-4,4 -4,-112 191.5,-112 191.5,4 -4,4"/>
<!-- mulle&#45;thread -->
<g id="node1" class="node">
<title>mulle&#45;thread</title>
<polygon fill="yellow" stroke="black" points="146.5,-108 38.5,-108 38.5,-72 146.5,-72 146.5,-108"/>
<text text-anchor="middle" x="92.5" y="-86.3" font-family="Times,serif" font-size="14.00">mulle&#45;thread</text>
</g>
<!-- mintomic -->
<g id="node2" class="node">
<title>mintomic</title>
<g id="a_node2"><a xlink:href="https://github.com/mulle-concurrent/mintomic" xlink:title="mintomic">
<polygon fill="lightgrey" stroke="black" points="83,-36 0,-36 0,0 83,0 83,-36"/>
<text text-anchor="middle" x="41.5" y="-14.3" font-family="Times,serif" font-size="14.00">mintomic</text>
</a>
</g>
</g>
<!-- mulle&#45;thread&#45;&gt;mintomic -->
<g id="edge1" class="edge">
<title>mulle&#45;thread&#45;&gt;mintomic</title>
<path fill="none" stroke="black" d="M79.89,-71.7C73.9,-63.47 66.62,-53.48 60.02,-44.42"/>
<polygon fill="black" stroke="black" points="62.68,-42.13 53.96,-36.1 57.02,-46.25 62.68,-42.13"/>
</g>
<!-- mulle&#45;c11 -->
<g id="node3" class="node">
<title>mulle&#45;c11</title>
<g id="a_node3"><a xlink:href="https://github.com/mulle-c/mulle-c11" xlink:title="mulle&#45;c11">
<polygon fill="lightgrey" stroke="black" points="187.5,-36 101.5,-36 101.5,0 187.5,0 187.5,-36"/>
<text text-anchor="middle" x="144.5" y="-14.3" font-family="Times,serif" font-size="14.00">mulle&#45;c11</text>
</a>
</g>
</g>
<!-- mulle&#45;thread&#45;&gt;mulle&#45;c11 -->
<g id="edge2" class="edge">
<title>mulle&#45;thread&#45;&gt;mulle&#45;c11</title>
<path fill="none" stroke="black" d="M105.35,-71.7C111.53,-63.39 119.04,-53.28 125.82,-44.14"/>
<polygon fill="black" stroke="black" points="128.64,-46.22 131.79,-36.1 123.02,-42.04 128.64,-46.22"/>
</g>
</g>
</svg>
